<svg width="123" height="42" viewBox="0 0 123 42" fill="none" xmlns="http://www.w3.org/2000/svg">
<rect x="1" y="19" width="46" height="11" fill="#85E28C"/>
<rect x="20.3467" y="20.3752" width="23.6669" height="11" transform="rotate(-45 20.3467 20.3752)" fill="#85E28C"/>
<rect x="19.7349" y="28.1534" width="23.6669" height="11" transform="rotate(-135 19.7349 28.1534)" fill="#85E28C"/>
<rect x="18" y="26.5" width="26" height="11" transform="rotate(-90 18 26.5)" fill="#85E28C"/>
<path d="M23.6778 42L11.7812 32H34.7812L23.6778 42Z" fill="#142627"/>
<path d="M1 30H47V36H1V30Z" fill="#142627"/>
<path d="M60.4353 31.5V13.3H68.1573C69.232 13.3 70.2027 13.56 71.0693 14.08C71.9533 14.5827 72.6467 15.276 73.1493 16.16C73.6693 17.044 73.9293 18.0407 73.9293 19.15C73.9293 20.2767 73.6693 21.2907 73.1493 22.192C72.6467 23.0933 71.9533 23.8127 71.0693 24.35C70.2027 24.87 69.232 25.13 68.1573 25.13H64.3353V31.5H60.4353ZM64.2833 21.62H67.7153C68.1313 21.62 68.504 21.516 68.8333 21.308C69.1627 21.0827 69.4227 20.788 69.6133 20.424C69.8213 20.06 69.9253 19.644 69.9253 19.176C69.9253 18.708 69.8213 18.3007 69.6133 17.954C69.4227 17.59 69.1627 17.3127 68.8333 17.122C68.504 16.914 68.1313 16.81 67.7153 16.81H64.2833V21.62ZM76.4337 31.5V28.146H79.4757V16.654H76.4337V13.3H86.4177V16.654H83.3757V28.146H86.4177V31.5H76.4337ZM90.1688 31.5V13.3H98.2288C99.3554 13.3 100.378 13.56 101.297 14.08C102.215 14.5827 102.935 15.2673 103.455 16.134C103.992 17.0007 104.261 17.9887 104.261 19.098C104.261 20.19 103.992 21.1867 103.455 22.088C102.935 22.972 102.215 23.674 101.297 24.194C100.378 24.714 99.3554 24.974 98.2288 24.974H93.9388V31.5H90.1688ZM100.491 31.5L95.8628 23.284L99.8668 22.634L105.015 31.526L100.491 31.5ZM93.9388 21.802H98.0468C98.5148 21.802 98.9221 21.698 99.2688 21.49C99.6328 21.2647 99.9101 20.9613 100.101 20.58C100.291 20.1813 100.387 19.7393 100.387 19.254C100.387 18.734 100.274 18.2833 100.049 17.902C99.8234 17.5207 99.4941 17.226 99.0608 17.018C98.6274 16.7927 98.1248 16.68 97.5528 16.68H93.9388V21.802ZM107.854 31.5V13.3H120.152V16.732H111.65V28.068H120.334V31.5H107.854ZM109.674 23.882V20.554H118.904V23.882H109.674Z" fill="#111111"/>
</svg>
