<svg width="76" height="33" viewBox="0 0 76 33" fill="none" xmlns="http://www.w3.org/2000/svg">
<rect width="76" height="33" rx="16.5" fill="#85E28C"/>
<path d="M8 15.3614H31.1284V20.9277H8V15.3614Z" fill="#FDFDFD"/>
<path d="M17.7272 16.0574L26.1414 7.58903L30.0522 11.525L21.638 19.9933L17.7272 16.0574Z" fill="#FDFDFD"/>
<path d="M17.4198 19.9933L9.00558 11.525L12.9164 7.58905L21.3306 16.0574L17.4198 19.9933Z" fill="#FDFDFD"/>
<path d="M16.5475 19.1566L16.5475 6L22.0782 6V19.1566H16.5475Z" fill="#FDFDFD"/>
<path d="M19.4022 27L13.4207 21.9398H24.9849L19.4022 27Z" fill="#142627"/>
<path d="M8 20.9277H31.1284V23.9639H8V20.9277Z" fill="#142627"/>
<path d="M37.8835 21.6867V12.4771H41.7661C42.3064 12.4771 42.7945 12.6087 43.2302 12.8718C43.6747 13.1262 44.0233 13.477 44.276 13.9243C44.5375 14.3717 44.6682 14.876 44.6682 15.4373C44.6682 16.0075 44.5375 16.5206 44.276 16.9767C44.0233 17.4328 43.6747 17.7968 43.2302 18.0687C42.7945 18.3318 42.3064 18.4634 41.7661 18.4634H39.8444V21.6867H37.8835ZM39.8183 16.6872H41.5438C41.753 16.6872 41.9404 16.6346 42.106 16.5293C42.2716 16.4153 42.4023 16.2662 42.4981 16.082C42.6027 15.8978 42.655 15.6873 42.655 15.4505C42.655 15.2137 42.6027 15.0076 42.4981 14.8321C42.4023 14.648 42.2716 14.5076 42.106 14.4111C41.9404 14.3059 41.753 14.2533 41.5438 14.2533H39.8183V16.6872Z" fill="#111111"/>
<path d="M45.9274 21.6867V19.9895H47.4568V14.1743H45.9274V12.4771H50.9472V14.1743H49.4177V19.9895H50.9472V21.6867H45.9274Z" fill="#111111"/>
<path d="M52.8333 21.6867V12.4771H56.8857C57.4522 12.4771 57.9664 12.6087 58.4283 12.8718C58.8902 13.1262 59.2519 13.4726 59.5133 13.9112C59.7835 14.3497 59.9186 14.8497 59.9186 15.411C59.9186 15.9636 59.7835 16.468 59.5133 16.924C59.2519 17.3714 58.8902 17.7266 58.4283 17.9897C57.9664 18.2529 57.4522 18.3844 56.8857 18.3844H54.7288V21.6867H52.8333ZM58.0231 21.6867L55.6961 17.5293L57.7093 17.2003L60.2977 21.6999L58.0231 21.6867ZM54.7288 16.7793H56.7942C57.0295 16.7793 57.2344 16.7267 57.4087 16.6214C57.5917 16.5074 57.7311 16.3539 57.827 16.161C57.9228 15.9592 57.9708 15.7356 57.9708 15.49C57.9708 15.2268 57.9141 14.9988 57.8008 14.8058C57.6875 14.6129 57.5219 14.4638 57.3041 14.3585C57.0862 14.2445 56.8335 14.1875 56.5459 14.1875H54.7288V16.7793Z" fill="#111111"/>
<path d="M61.7252 21.6867V12.4771H67.9085V14.2138H63.6338V19.9501H68V21.6867H61.7252ZM62.6402 17.8319V16.1478H67.281V17.8319H62.6402Z" fill="#111111"/>
</svg>
